<svg width="150" height="150" viewBox="0 0 137 137" fill="none" xmlns="http://www.w3.org/2000/svg">
    <path d="M136.967 127.283L126.204 67.9849C126.097 67.393 125.73 66.8803 125.204 66.5878L98.1134 51.5205C97.7618 51.3246 97.3677 51.2468 96.9805 51.2767L101.909 114.856L101.744 114.929L134.165 129.474C134.429 129.592 134.709 129.651 134.988 129.651C135.43 129.651 135.868 129.505 136.228 129.223C136.816 128.764 137.1 128.017 136.967 127.283Z" fill="#44C868"/>
    <path d="M68.5002 65.9249L40.7937 51.4941C40.4617 51.321 40.0935 51.2503 39.7309 51.2747C39.827 51.2688 39.9236 51.2693 40.0194 51.2768L35.0908 114.856L67.6768 129.475C67.9399 129.592 68.2205 129.651 68.5002 129.651V65.9249Z" fill="#44C868"/>
    <path d="M40.019 51.2767C39.6318 51.2468 39.2377 51.3246 38.8861 51.5202L11.7956 66.5876C11.2696 66.88 10.9025 67.3925 10.7952 67.9846L0.0323443 127.283C-0.10091 128.017 0.183794 128.764 0.771664 129.223C1.13209 129.505 1.56958 129.65 2.01109 129.65C2.29017 129.65 2.57086 129.592 2.83443 129.474L35.0787 115.009L40.019 51.2767Z" fill="#4CE166"/>
    <path d="M96.9808 51.2754C96.7143 51.296 96.4507 51.3669 96.2064 51.4943L68.5 65.9248V129.651C68.5 129.651 68.5 129.651 68.5003 129.651C68.7799 129.651 69.0608 129.592 69.3236 129.474L101.91 114.856L96.9808 51.2754Z" fill="#4CE166"/>
    <path d="M7.53404 85.9549L5.34766 98.001L37.7231 80.9011L38.4747 71.2043L38.5994 69.5962L7.53404 85.9549Z" fill="#FFDB56"/>
    <path d="M38.0138 77.1411L37.7224 80.9011L5.34699 98.001L0.0323443 127.283C-0.10091 128.017 0.183794 128.764 0.771664 129.223C1.13209 129.505 1.56958 129.65 2.01109 129.65C2.29017 129.65 2.57086 129.592 2.83443 129.474L35.0787 115.009L38.0138 77.1411Z" fill="#A8EEFC"/>
    <path d="M68.5084 73.8729L38.599 69.5962L37.7227 80.9011L68.5004 127.642V110.645L50.1346 81.7261L68.5084 83.9237V73.8729Z" fill="#FFBB24"/>
    <path d="M123.071 65.4018L110.057 58.1636L97.7373 61.0422L97.8914 63.0319L98.4999 70.8811L123.071 65.4018Z" fill="#FFBB24"/>
    <path d="M99.5929 84.9768L98.4263 69.9258L97.7378 61.0425L68.5078 73.8734V83.9242L87.6011 75.6212L99.5929 84.9768Z" fill="#FFDB56"/>
    <path d="M136.968 127.283L134.265 112.388L98.501 70.8809L99.5938 84.9764L136.271 129.186C136.828 128.724 137.098 127.998 136.968 127.283Z" fill="#FFBB24"/>
    <path d="M68.6279 7.34912C53.1182 7.34912 40.5 19.9569 40.5 35.454C40.5 45.0402 45.0512 55.3324 54.0277 66.0441C60.6206 73.9117 67.1238 78.9719 67.3975 79.1835C67.7598 79.4637 68.1939 79.6036 68.6281 79.6036C69.0621 79.6036 69.4964 79.4637 69.8587 79.1835C70.1322 78.9719 76.6357 73.9117 83.2286 66.0441C92.205 55.3324 96.7563 45.0405 96.7563 35.454C96.7557 19.9569 84.1375 7.34912 68.6279 7.34912ZM79.0447 35.4537C79.0447 41.2018 74.3808 45.862 68.6279 45.862C62.8749 45.862 58.211 41.2021 58.211 35.4537C58.211 29.7053 62.8749 25.0454 68.6279 25.0454C74.3808 25.0454 79.0447 29.7056 79.0447 35.4537Z" fill="#FF4A4A"/>
    <path d="M68.6291 7.34912C67.3998 7.34912 66.189 7.42886 65.001 7.58245C78.8035 9.3664 89.501 21.1851 89.501 35.454C89.501 45.0402 84.9498 55.3324 75.9733 66.0441C71.7335 71.1035 67.5339 74.9991 65.0012 77.1938C66.4071 78.4118 67.3013 79.1081 67.3987 79.1835C67.761 79.4637 68.1951 79.6036 68.6293 79.6036C69.0634 79.6036 69.4976 79.4637 69.8599 79.1835C70.1334 78.9719 76.6369 73.9117 83.2298 66.0441C92.2062 55.3324 96.7575 45.0405 96.7575 35.454C96.7569 19.9569 84.1387 7.34912 68.6291 7.34912Z" fill="#E7343F"/>
    <path d="M69.3236 129.474L81.4409 124.038L68.5 110.646V129.651C68.5 129.651 68.5 129.651 68.5003 129.651C68.7799 129.651 69.0606 129.592 69.3236 129.474Z" fill="#FFDB56"/>
    <path d="M126.205 67.9851C126.098 67.3932 125.731 66.8805 125.205 66.588L123.072 65.4019L98.501 70.8811L134.264 112.388L126.205 67.9851Z" fill="#1EA4E9"/>
    <path d="M68.4995 129.651C68.4997 129.651 68.4997 129.651 68.4995 129.651V127.642L37.722 80.9019L35.0898 114.856L67.6759 129.475C67.9389 129.593 68.2196 129.651 68.4995 129.651Z" fill="#1EA4E9"/>
</svg>
