<svg width="285" height="57" viewBox="0 0 285 57" fill="none" xmlns="http://www.w3.org/2000/svg">
    <path d="M15.4077 6.83914H3.14442C1.41499 6.83914 0 5.42415 0 3.69472C0 1.96529 1.41499 0.628906 3.14442 0.628906H34.3528C36.0823 0.628906 37.4186 1.96529 37.4186 3.69472C37.4186 5.42415 36.0823 6.83914 34.3528 6.83914H22.0896V52.905C22.0896 54.713 20.596 56.2852 18.7093 56.2852C16.9013 56.2852 15.4077 54.713 15.4077 52.905V6.83914V6.83914Z" fill="white"/>
    <path d="M32.8604 35.6106C32.8604 23.9762 41.822 14.7788 53.6136 14.7788C59.3521 14.7788 64.1474 16.9799 67.2132 19.8099C67.9207 20.4388 68.3923 21.3035 68.3923 22.2468C68.3923 23.0329 68.1565 23.7404 67.3704 24.6051L53.3777 41.3492C52.7488 42.0567 52.0413 42.3711 51.1766 42.3711C49.4472 42.3711 48.1894 41.192 48.1894 39.5411C48.1894 38.8336 48.3466 38.1262 48.8969 37.5759L61.1602 23.1115C59.1163 21.3821 56.2077 20.596 53.6136 20.596C45.5953 20.596 39.2278 27.1993 39.2278 35.6106C39.2278 43.9433 45.5167 50.6252 53.6136 50.6252C58.0944 50.6252 61.6318 48.66 64.0688 45.9086C64.9335 45.1225 65.641 44.4936 66.7415 44.4936C68.5496 44.4936 69.8859 45.7514 69.8859 47.4808C69.8859 48.1097 69.4929 48.9744 68.9426 49.6033C65.641 53.5338 60.2168 56.4424 53.6136 56.4424C41.9006 56.4424 32.8604 47.245 32.8604 35.6106Z" fill="white"/>
    <path d="M78.5342 31.7587C78.5342 21.6179 84.9802 14.7788 94.7279 14.7788C96.3001 14.7788 97.6365 16.0366 97.6365 17.6874C97.6365 19.2596 96.3001 20.596 94.7279 20.596C88.9107 20.596 84.823 24.4479 84.823 31.7587V53.0622C84.823 54.8702 83.408 56.2852 81.6786 56.2852C79.8706 56.2852 78.5342 54.8702 78.5342 53.0622V31.7587V31.7587Z" fill="white"/>
    <path d="M103.059 31.7587C103.059 21.6179 109.505 14.7788 119.252 14.7788C120.825 14.7788 122.161 16.0366 122.161 17.6874C122.161 19.2596 120.825 20.596 119.252 20.596C113.435 20.596 109.347 24.4479 109.347 31.7587V53.0622C109.347 54.8702 107.932 56.2852 106.203 56.2852C104.395 56.2852 103.059 54.8702 103.059 53.0622V31.7587Z" fill="white"/>
    <path d="M160.598 50.1536C156.904 54.0841 151.794 56.4424 145.898 56.4424C134.342 56.4424 125.538 47.245 125.538 35.6106C125.538 23.9762 134.342 14.7788 145.898 14.7788C151.794 14.7788 156.904 17.2157 160.598 21.0677V18.0805C160.598 16.351 162.013 14.936 163.743 14.936C165.551 14.936 166.887 16.351 166.887 18.0805V53.0622C166.887 54.8702 165.551 56.2852 163.743 56.2852C162.013 56.2852 160.598 54.8702 160.598 53.0622V50.1536ZM160.598 36.2395V34.9817C160.284 26.8062 154.074 20.596 146.291 20.596C138.273 20.596 131.906 27.1207 131.906 35.6106C131.906 44.1006 138.273 50.6252 146.291 50.6252C154.074 50.6252 160.284 44.415 160.598 36.2395Z" fill="white"/>
    <path d="M210.831 50.1535C207.136 54.0841 202.026 56.4424 196.131 56.4424C184.575 56.4424 175.771 47.245 175.771 35.6106C175.771 23.9762 184.575 14.7788 196.131 14.7788C202.026 14.7788 207.136 17.2157 210.831 21.0676V3.14442C210.831 1.41499 212.246 0 213.975 0C215.783 0 217.12 1.41499 217.12 3.14442V53.0621C217.12 54.8702 215.783 56.2852 213.975 56.2852C212.246 56.2852 210.831 54.8702 210.831 53.0621V50.1535ZM210.831 36.2395V34.9817C210.516 26.8062 204.306 20.596 196.524 20.596C188.505 20.596 182.138 27.1207 182.138 35.6106C182.138 44.1005 188.505 50.6252 196.524 50.6252C204.306 50.6252 210.516 44.415 210.831 36.2395Z" fill="white"/>
    <path d="M227.024 5.81725C227.024 3.61615 228.754 1.88672 230.955 1.88672C233.077 1.88672 234.885 3.61615 234.885 5.81725C234.885 7.93973 233.077 9.74778 230.955 9.74778C228.754 9.74778 227.024 7.93973 227.024 5.81725ZM227.811 18.0805C227.811 16.3511 229.147 14.9361 230.955 14.9361C232.684 14.9361 234.099 16.3511 234.099 18.0805V53.0622C234.099 54.8702 232.684 56.2852 230.955 56.2852C229.147 56.2852 227.811 54.8702 227.811 53.0622V18.0805Z" fill="white"/>
    <path d="M277.965 50.1536C274.27 54.0841 269.16 56.4424 263.264 56.4424C251.709 56.4424 242.904 47.245 242.904 35.6106C242.904 23.9762 251.709 14.7788 263.264 14.7788C269.16 14.7788 274.27 17.2157 277.965 21.0677V18.0805C277.965 16.351 279.38 14.936 281.109 14.936C282.917 14.936 284.253 16.351 284.253 18.0805V53.0622C284.253 54.8702 282.917 56.2852 281.109 56.2852C279.38 56.2852 277.965 54.8702 277.965 53.0622V50.1536ZM277.965 36.2395V34.9817C277.65 26.8062 271.44 20.596 263.657 20.596C255.639 20.596 249.272 27.1207 249.272 35.6106C249.272 44.1006 255.639 50.6252 263.657 50.6252C271.44 50.6252 277.65 44.415 277.965 36.2395Z" fill="white"/>
</svg>
