<svg width="40" height="40" viewBox="0 0 40 40" fill="none" xmlns="http://www.w3.org/2000/svg">
    <g clip-path="url(#clip0)">
        <path d="M12.0081 26.337H34.0482C36.5473 26.337 38.5861 24.2982 38.5861 21.7991V12.526C38.5861 12.5178 38.5861 12.5013 38.5861 12.4931C38.5861 12.4684 38.5861 12.452 38.5861 12.4273C38.5861 12.4109 38.5861 12.3944 38.5779 12.378C38.5779 12.3616 38.5696 12.3369 38.5696 12.3205C38.5696 12.304 38.5614 12.2876 38.5614 12.2711C38.5532 12.2547 38.5532 12.2382 38.545 12.2136C38.5368 12.1971 38.5368 12.1807 38.5285 12.1643C38.5203 12.1478 38.5203 12.1314 38.5121 12.1149C38.5039 12.0985 38.4956 12.082 38.4874 12.0574C38.4792 12.0409 38.471 12.0245 38.4628 12.0163C38.4545 11.9998 38.4463 11.9834 38.4381 11.967C38.4299 11.9505 38.4217 11.9423 38.4134 11.9259C38.4052 11.9094 38.3888 11.893 38.3806 11.8765C38.3723 11.8601 38.3641 11.8519 38.3477 11.8354C38.3395 11.819 38.323 11.8108 38.3148 11.7943C38.3066 11.7779 38.2901 11.7697 38.2819 11.7532C38.2737 11.7368 38.2572 11.7286 38.249 11.7203C38.2326 11.7039 38.2244 11.6957 38.2079 11.6792C38.1915 11.671 38.1833 11.6546 38.1668 11.6463C38.1504 11.6381 38.1339 11.6217 38.1175 11.6135C38.101 11.6052 38.0928 11.597 38.0764 11.5888C38.0599 11.5806 38.0435 11.5724 38.0271 11.5559C38.0106 11.5477 37.9942 11.5395 37.9777 11.5313C37.9613 11.523 37.9449 11.5148 37.9284 11.5066C37.912 11.4984 37.8955 11.4901 37.8791 11.4819C37.8626 11.4737 37.8462 11.4737 37.8298 11.4655C37.8133 11.4573 37.7887 11.449 37.7722 11.449C37.7558 11.449 37.7393 11.4408 37.7311 11.4408C37.7064 11.4326 37.69 11.4326 37.6653 11.4326C37.6571 11.4326 37.6489 11.4244 37.6325 11.4244L9.69809 7.56881V3.67214C9.69809 3.63104 9.69809 3.58993 9.68987 3.55705C9.68987 3.54883 9.68987 3.54061 9.68165 3.52417C9.68165 3.4995 9.67343 3.47484 9.67343 3.45018C9.6652 3.42552 9.66521 3.40907 9.65698 3.38441C9.65698 3.36797 9.64876 3.35975 9.64876 3.34331C9.64054 3.31865 9.63232 3.29398 9.6241 3.26932C9.6241 3.2611 9.61588 3.24466 9.61588 3.23644C9.60766 3.21177 9.59944 3.19533 9.583 3.17067C9.57478 3.16245 9.57478 3.14601 9.56656 3.13779C9.55833 3.12135 9.55011 3.1049 9.53367 3.08846C9.52545 3.07202 9.51723 3.0638 9.50901 3.04736C9.50079 3.03092 9.49257 3.0227 9.48435 3.00625C9.47613 2.98981 9.45968 2.97337 9.45146 2.95693C9.44324 2.94871 9.43502 2.94049 9.4268 2.93227C9.41036 2.91582 9.39392 2.89938 9.37748 2.88294C9.36925 2.87472 9.36103 2.8665 9.35281 2.85828C9.33637 2.84184 9.31993 2.8254 9.29527 2.80895C9.28705 2.80073 9.2706 2.79251 9.26238 2.78429C9.24594 2.76785 9.2295 2.75963 9.21306 2.74319C9.1884 2.72675 9.16373 2.7103 9.14729 2.70208C9.13907 2.69386 9.13085 2.69386 9.12263 2.68564C9.08975 2.6692 9.04864 2.65276 9.01576 2.63632L2.95701 0.0878601C2.38977 -0.150544 1.74033 0.112523 1.50192 0.67976C1.26352 1.247 1.52659 1.89644 2.09382 2.13485L7.47024 4.40379V9.43494V10.2324V16.3487V21.8155V28.721C7.47024 31.0228 9.19662 32.9301 11.4245 33.2178C11.0216 33.8919 10.7832 34.6811 10.7832 35.5196C10.7832 37.9941 12.7973 40 15.2636 40C17.7298 40 19.7439 37.9859 19.7439 35.5196C19.7439 34.6975 19.522 33.9166 19.1274 33.2589H29.1075C28.7129 33.9248 28.4909 34.6975 28.4909 35.5196C28.4909 37.9941 30.505 40 32.9713 40C35.4375 40 37.4516 37.9859 37.4516 35.5196C37.4516 33.0534 35.4375 31.0393 32.9713 31.0393H12.0081C10.7257 31.0393 9.68987 29.9952 9.68987 28.721V25.7122C10.364 26.1068 11.1614 26.337 12.0081 26.337ZM17.5325 35.5114C17.5325 36.761 16.5132 37.7721 15.2718 37.7721C14.0305 37.7721 13.0111 36.7528 13.0111 35.5114C13.0111 34.2701 14.0305 33.2507 15.2718 33.2507C16.5132 33.2507 17.5325 34.2618 17.5325 35.5114ZM35.2402 35.5114C35.2402 36.761 34.2208 37.7721 32.9795 37.7721C31.7381 37.7721 30.7187 36.7528 30.7187 35.5114C30.7187 34.2701 31.7381 33.2507 32.9795 33.2507C34.2208 33.2507 35.2402 34.2618 35.2402 35.5114ZM34.0482 24.1173H12.0081C10.7257 24.1173 9.68987 23.0733 9.68987 21.7991V16.3322V10.2159V9.80488L36.3665 13.4796V21.7908C36.3665 23.0815 35.3224 24.1173 34.0482 24.1173Z" fill="#4AA542"/>
    </g>
    <defs>
        <clipPath id="clip0">
            <rect width="40" height="40" fill="white"/>
        </clipPath>
    </defs>
</svg>
