<svg width="40" height="40" viewBox="0 0 40 40" fill="none" xmlns="http://www.w3.org/2000/svg">
    <path d="M21.7531 18.1887V15.7524C21.7531 15.429 21.4907 15.1665 21.1672 15.1665H10.291C9.96722 15.1665 9.70508 15.429 9.70508 15.7524V18.1887C9.70508 18.5121 9.96722 18.7746 10.291 18.7746H21.1672C21.4907 18.7746 21.7531 18.5125 21.7531 18.1887ZM20.5812 17.6027H10.877V16.3384H20.5812V17.6027Z" fill="#4AA542"/>
    <path d="M22.2607 33.9302H29.8221C30.1456 33.9302 30.408 33.6677 30.408 33.3442V30.9077C30.408 30.5842 30.1456 30.3218 29.8221 30.3218H22.2607C21.937 30.3218 21.6748 30.5842 21.6748 30.9077V33.3442C21.6748 33.6677 21.937 33.9302 22.2607 33.9302ZM22.8467 31.4937H29.2361V32.7583H22.8467V31.4937Z" fill="#4AA542"/>
    <path d="M29.8223 11.6167H10.291C9.96722 11.6167 9.70508 11.8792 9.70508 12.2026C9.70508 12.5264 9.96722 12.7886 10.291 12.7886H29.8223C30.1458 12.7886 30.4082 12.5264 30.4082 12.2026C30.4082 11.8792 30.1458 11.6167 29.8223 11.6167Z" fill="#4AA542"/>
    <path d="M17.3781 21.3433C17.3781 21.0198 17.1157 20.7573 16.7922 20.7573H10.291C9.96722 20.7573 9.70508 21.0198 9.70508 21.3433C9.70508 21.6671 9.96722 21.9292 10.291 21.9292H16.7922C17.1157 21.9292 17.3781 21.6671 17.3781 21.3433Z" fill="#4AA542"/>
    <path d="M15.7289 23.7134H10.291C9.96722 23.7134 9.70508 23.9755 9.70508 24.2993C9.70508 24.6228 9.96722 24.8853 10.291 24.8853H15.7289C16.0527 24.8853 16.3149 24.6228 16.3149 24.2993C16.3149 23.9755 16.0527 23.7134 15.7289 23.7134Z" fill="#4AA542"/>
    <path d="M15.7289 26.6689H10.291C9.96722 26.6689 9.70508 26.9314 9.70508 27.2549C9.70508 27.5787 9.96722 27.8408 10.291 27.8408H15.7289C16.0527 27.8408 16.3149 27.5787 16.3149 27.2549C16.3149 26.9314 16.0527 26.6689 15.7289 26.6689Z" fill="#4AA542"/>
    <path d="M29.8217 26.6689H27.1025C26.7787 26.6689 26.5166 26.9314 26.5166 27.2549C26.5166 27.5787 26.7787 27.8408 27.1025 27.8408H29.8217C30.1451 27.8408 30.4076 27.5787 30.4076 27.2549C30.4076 26.9314 30.1451 26.6689 29.8217 26.6689Z" fill="#4AA542"/>
    <path d="M29.8217 23.7134H27.1025C26.7787 23.7134 26.5166 23.9758 26.5166 24.2993C26.5166 24.6228 26.7787 24.8853 27.1025 24.8853H29.8217C30.1451 24.8853 30.4076 24.6228 30.4076 24.2993C30.4076 23.9758 30.1451 23.7134 29.8217 23.7134Z" fill="#4AA542"/>
    <path d="M29.8217 20.7573H27.1025C26.7787 20.7573 26.5166 21.0198 26.5166 21.3433C26.5166 21.6671 26.7787 21.9292 27.1025 21.9292H29.8217C30.1451 21.9292 30.4076 21.6671 30.4076 21.3433C30.4076 21.0198 30.1451 20.7573 29.8217 20.7573Z" fill="#4AA542"/>
    <path d="M32.1823 13.7839C32.5058 13.7839 32.7682 13.5214 32.7682 13.1979V0.585938C32.7682 0.262451 32.5058 0 32.1823 0C30.325 0 30.1694 2.34375 29.1501 2.34375C28.1314 2.34375 27.9776 0 26.1182 0C24.2615 0 24.1052 2.34375 23.0869 2.34375C22.0648 2.34375 21.9177 0 20.0549 0C18.1982 0 18.0423 2.34375 17.0236 2.34375C16.0065 2.34375 15.8499 0 13.9923 0C12.1353 0 11.9797 2.34375 10.961 2.34375C9.93896 2.34375 9.79279 0 7.92969 0C7.6059 0 7.34375 0.262451 7.34375 0.585938V39.4141C7.34375 39.7375 7.6059 40 7.92969 40C9.78668 40 9.94263 37.6562 10.961 37.6562C11.9827 37.6562 12.1295 40 13.9923 40C15.849 40 16.0049 37.6562 17.0236 37.6562C18.0457 37.6562 18.1924 40 20.0549 40C21.9119 40 22.0682 37.6562 23.0869 37.6562C24.1089 37.6562 24.2554 40 26.1182 40C27.9755 40 28.1311 37.6562 29.1501 37.6562C30.1691 37.6562 30.3229 40 32.1823 40C32.5058 40 32.7682 39.7375 32.7682 39.4141V15.3854C32.7682 15.0616 32.5058 14.7995 32.1823 14.7995C31.8585 14.7995 31.5964 15.0616 31.5964 15.3854V38.5324C31.0114 37.8857 30.585 36.4844 29.1501 36.4844C27.2931 36.4844 27.1375 38.8281 26.1182 38.8281C25.101 38.8281 24.9445 36.4844 23.0869 36.4844C21.2299 36.4844 21.0736 38.8281 20.0549 38.8281C19.0332 38.8281 18.8864 36.4844 17.0236 36.4844C15.1666 36.4844 15.0107 38.8281 13.9923 38.8281C12.97 38.8281 12.8238 36.4844 10.961 36.4844C9.52698 36.4844 9.10095 37.8848 8.51562 38.5321V1.4679C9.09973 2.11395 9.52667 3.51562 10.9613 3.51562C12.818 3.51562 12.9739 1.17188 13.9923 1.17188C15.0146 1.17188 15.1608 3.51562 17.0236 3.51562C18.8806 3.51562 19.0366 1.17188 20.0552 1.17188C21.0773 1.17188 21.2241 3.51562 23.0869 3.51562C24.9438 3.51562 25.0995 1.17188 26.1185 1.17188C27.1375 1.17188 27.2913 3.51562 29.1504 3.51562C30.585 3.51562 31.0117 2.11426 31.5964 1.46759V13.1979C31.5964 13.5214 31.8585 13.7839 32.1823 13.7839Z" fill="#4AA542"/>
    <path d="M30.4082 6.65576C30.4082 6.33228 30.1458 6.06982 29.8223 6.06982H15.7289C15.4052 6.06982 15.143 6.33228 15.143 6.65576C15.143 6.97955 15.4052 7.2417 15.7289 7.2417H29.2363V8.50635H10.877V7.2417H13.5414C13.8652 7.2417 14.1274 6.97955 14.1274 6.65576C14.1274 6.33228 13.8652 6.06982 13.5414 6.06982H10.291C9.96722 6.06982 9.70508 6.33228 9.70508 6.65576V9.09229C9.70508 9.41577 9.96722 9.67822 10.291 9.67822H29.8223C30.1458 9.67822 30.4082 9.41577 30.4082 9.09229V6.65576Z" fill="#4AA542"/>
</svg>
