<svg width="40" height="39" viewBox="0 0 40 39" fill="none" xmlns="http://www.w3.org/2000/svg">
    <path d="M39.9475 14.4322C39.8829 14.2357 39.7648 14.061 39.6066 13.9277C39.4483 13.7944 39.2561 13.7078 39.0515 13.6775L26.5713 11.9042L20.9578 0.616009C20.8657 0.431044 20.7238 0.275426 20.5481 0.166616C20.3724 0.0578056 20.1698 0.000108933 19.9632 0C19.7555 0.000224608 19.5521 0.058861 19.3762 0.169207C19.2003 0.279553 19.059 0.437158 18.9685 0.62401L13.4297 11.9442L0.949549 13.8109C0.744873 13.8411 0.552654 13.9277 0.394408 14.061C0.236162 14.1943 0.118134 14.369 0.0535351 14.5656C-0.0103501 14.7624 -0.0172057 14.9733 0.0337615 15.1738C0.0847287 15.3744 0.191436 15.5565 0.341539 15.6989L9.40834 24.475L7.31498 36.9046C7.28879 37.0634 7.2973 37.226 7.33993 37.3812C7.38257 37.5364 7.45831 37.6805 7.56194 37.8037C7.66558 37.9268 7.79466 38.0261 7.94031 38.0946C8.08595 38.1631 8.24471 38.1993 8.40566 38.2006C8.58639 38.2016 8.76441 38.1566 8.923 38.0699L20.0565 32.1578L31.23 37.9952C31.3879 38.0753 31.5623 38.1174 31.7393 38.1179C32.0331 38.1165 32.3145 37.9992 32.5222 37.7914C32.73 37.5837 32.8473 37.3023 32.8487 37.0086C32.852 36.9185 32.8412 36.8286 32.8167 36.7419L30.6567 24.387L39.6541 15.5602C39.8052 15.4196 39.9131 15.2387 39.9651 15.0389C40.017 14.8391 40.0109 14.6287 39.9475 14.4322ZM28.6993 23.2323C28.5705 23.3581 28.4746 23.5137 28.4202 23.6853C28.3658 23.8569 28.3545 24.0393 28.3873 24.2164L30.2673 34.9952L20.5632 29.9284C20.4034 29.8455 20.2259 29.8022 20.0458 29.8022C19.8658 29.8022 19.6883 29.8455 19.5285 29.9284L9.86968 35.0485L11.683 24.2537C11.7126 24.0773 11.6989 23.8963 11.6431 23.7263C11.5874 23.5563 11.4913 23.4024 11.363 23.2777L3.50425 15.6562L14.3337 14.0562C14.511 14.03 14.6792 13.9609 14.8237 13.8549C14.9683 13.749 15.0848 13.6094 15.1631 13.4482L19.9632 3.62139L24.8406 13.4242C24.9215 13.585 25.0397 13.7241 25.1854 13.8299C25.3311 13.9357 25.5 14.005 25.6779 14.0322L36.5154 15.5762L28.6993 23.2323Z" fill="#4AA542"/>
</svg>
