<svg width="48" height="48" viewBox="0 0 48 48" fill="none" xmlns="http://www.w3.org/2000/svg">
	<g clip-path="url(#clip0)">
		<path d="M47.2424 7.95692L45.8024 0.696116C45.7163 0.262716 45.2953 -0.0187838 44.8619 0.0672162C44.8618 0.0672162 44.8617 0.0672162 44.8616 0.0673162L5.22481 7.94812H4.00001C3.55821 7.94812 3.20001 8.30632 3.20001 8.74812V12.8281C1.33531 13.2049 -0.00409061 14.8457 9.38698e-06 16.7481V43.9481C0.00260939 46.1561 1.79201 47.9455 4.00001 47.9481H47.2C47.6418 47.9481 48 47.5899 48 47.1481V8.74812C47.996 8.32572 47.6642 7.97922 47.2424 7.95692ZM44.3872 1.79292L45.6096 7.94812H13.4296L44.3872 1.79292ZM2.29361 15.0505L2.29761 15.0537C2.55301 14.8003 2.86111 14.6064 3.20001 14.4857V19.0017C3.18241 18.9961 3.16481 18.9921 3.14721 18.9857C3.04391 18.9446 2.94371 18.8962 2.84721 18.8409C2.79921 18.8145 2.74801 18.7937 2.70161 18.7609C2.55781 18.6704 2.42381 18.5653 2.30161 18.4473C1.36391 17.5104 1.36031 15.9917 2.29361 15.0505ZM46.4 36.7481H35.2V30.3481H46.4V36.7481ZM46.4 28.7481H34.4C33.9582 28.7481 33.6 29.1063 33.6 29.5481V37.5481C33.6 37.9899 33.9582 38.3481 34.4 38.3481H46.4V46.3481H4.00001C2.67451 46.3481 1.60001 45.2736 1.60001 43.9481V19.9481C1.63601 19.9753 1.67601 19.9937 1.71281 20.0193C1.78321 20.0689 1.85601 20.1113 1.92881 20.1561C2.06351 20.2384 2.20301 20.3126 2.34641 20.3785C2.42641 20.4145 2.50641 20.4497 2.58641 20.4801C2.74031 20.5376 2.89771 20.5851 3.05761 20.6225C3.13201 20.6409 3.20401 20.6641 3.27921 20.6777C3.51681 20.7229 3.75811 20.7465 4.00001 20.7481H46.4V28.7481ZM20.0568 19.1481C20.4962 16.0867 23.3341 13.9611 26.3956 14.4005C28.8566 14.7537 30.79 16.6872 31.1432 19.1481H20.0568ZM46.4 19.1481H32.7528C32.2982 15.1977 28.7273 12.3638 24.7769 12.8184C21.4524 13.201 18.8297 15.8236 18.4472 19.1481H4.80001V9.54812H46.4V19.1481Z" fill="#4AA542"/>
		<path d="M44.0002 11.1484H39.2002V12.7484H43.2002V16.7484H44.8002V11.9484C44.8002 11.5065 44.442 11.1484 44.0002 11.1484Z" fill="#4AA542"/>
		<path d="M7.20039 11.1484C6.75859 11.1484 6.40039 11.5066 6.40039 11.9484V16.7484H8.00039V12.7484H12.0004V11.1484H7.20039Z" fill="#4AA542"/>
		<path d="M38.3998 32.748H36.7998V34.348H38.3998V32.748Z" fill="#4AA542"/>
	</g>
	<defs>
		<clipPath id="clip0">
			<rect width="48" height="48" fill="white"/>
		</clipPath>
	</defs>
</svg>
