<svg width="100" height="100" viewBox="0 0 80 80" fill="none" xmlns="http://www.w3.org/2000/svg">
    <g clip-path="url(#clip0)">
        <path d="M5.74697 22.2531C7.64572 20.1815 9.6354 18.3175 11.8262 16.5868C12.0838 16.3834 12.4548 16.627 12.3685 16.9437C11.1406 21.457 8.99509 25.9173 5.68775 29.2331C5.53916 26.9118 5.53697 24.5712 5.74697 22.2531Z" fill="#FF901D"/>
        <path d="M5.68812 29.2347C3.77859 26.9304 2.13766 24.5479 0.659219 21.9757C0.490157 21.6816 0.040469 21.7864 0.0232815 22.1254C-0.243437 27.3943 1.76969 33.5593 6.67438 36.0458C6.18563 33.8052 5.83344 31.525 5.68812 29.2347Z" fill="#FF901D"/>
        <path d="M6.67383 36.044C7.87555 33.5713 9.2207 31.2708 10.7974 29.041C10.9845 28.7765 11.404 28.8977 11.4176 29.2215C11.6096 33.7729 10.8287 38.5841 8.64789 42.5794C7.83945 40.4529 7.15758 38.2685 6.67383 36.044Z" fill="#FF901D"/>
        <path d="M8.649 42.5811C6.16947 40.9875 3.90447 39.2452 1.73181 37.288C1.48119 37.0622 1.08806 37.298 1.1729 37.6244C2.48181 42.6571 6.22494 47.8216 11.554 48.7338C10.4462 46.7557 9.45384 44.7024 8.649 42.5811Z" fill="#FF901D"/>
        <path d="M11.5527 48.7323C11.9871 46.0348 12.6084 43.4616 13.4732 40.8889C13.576 40.583 14.0105 40.577 14.1184 40.8814C15.6309 45.1514 16.2435 49.9687 15.331 54.3959C13.9438 52.6006 12.6605 50.7139 11.5527 48.7323Z" fill="#FF901D"/>
        <path d="M15.3317 54.3974C12.5052 53.5967 9.83493 52.5953 7.1904 51.3678C6.88493 51.2259 6.57868 51.5659 6.75478 51.8529C9.47384 56.2871 14.5645 60.1262 19.9262 59.4646C18.2802 57.8878 16.7249 56.2032 15.3317 54.3974Z" fill="#FF901D"/>
        <path d="M19.9254 59.4636C19.5398 56.7457 19.3759 54.095 19.4516 51.3701C19.4605 51.0472 19.8749 50.9148 20.0668 51.1748C22.7749 54.8464 24.7952 59.3064 25.2787 63.8281C23.3955 62.5046 21.5874 61.0581 19.9254 59.4636Z" fill="#FF901D"/>
        <path d="M74.2525 22.2531C72.3537 20.1815 70.364 18.3175 68.1732 16.5868C67.9156 16.3834 67.5446 16.627 67.6309 16.9437C68.8589 21.457 71.0043 25.9173 74.3117 29.2331C74.4603 26.9118 74.4625 24.5712 74.2525 22.2531Z" fill="#FF901D"/>
        <path d="M74.3114 29.2347C76.221 26.9304 77.8619 24.5479 79.3404 21.9757C79.5094 21.6816 79.9591 21.7864 79.9763 22.1254C80.243 27.3943 78.2299 33.5593 73.3252 36.0458C73.8139 33.8052 74.1661 31.525 74.3114 29.2347Z" fill="#FF901D"/>
        <path d="M73.3255 36.044C72.1238 33.5713 70.7786 31.2708 69.2019 29.041C69.0149 28.7765 68.5953 28.8977 68.5817 29.2215C68.3897 33.7729 69.1706 38.5841 71.3514 42.5794C72.1599 40.4529 72.8417 38.2685 73.3255 36.044Z" fill="#FF901D"/>
        <path d="M71.3513 42.5811C73.8308 40.9875 76.0958 39.2452 78.2685 37.288C78.5191 37.0622 78.9122 37.298 78.8274 37.6244C77.5185 42.6571 73.7753 47.8216 68.4463 48.7338C69.5541 46.7557 70.5464 44.7024 71.3513 42.5811Z" fill="#FF901D"/>
        <path d="M68.4475 48.7323C68.0131 46.0348 67.3918 43.4616 66.527 40.8889C66.4242 40.583 65.9896 40.577 65.8818 40.8814C64.3693 45.1514 63.7567 49.9687 64.6692 54.3959C66.0564 52.6006 67.3396 50.7139 68.4475 48.7323Z" fill="#FF901D"/>
        <path d="M64.6678 54.3974C67.4942 53.5967 70.1645 52.5953 72.809 51.3678C73.1145 51.2259 73.4208 51.5659 73.2447 51.8529C70.5256 56.2871 65.435 60.1262 60.0732 59.4646C61.7192 57.8878 63.2745 56.2032 64.6678 54.3974Z" fill="#FF901D"/>
        <path d="M60.075 59.4636C60.4606 56.7457 60.6245 54.095 60.5487 51.3701C60.5398 51.0472 60.1254 50.9148 59.9335 51.1748C57.2254 54.8464 55.2051 59.3064 54.7217 63.8281C56.6048 62.5046 58.4129 61.0581 60.075 59.4636Z" fill="#FF901D"/>
        <path d="M31.8908 66.3079C29.7269 65.2409 27.7489 64.08 26.0116 62.8578C26.0111 62.8575 26.0108 62.8573 26.0103 62.857C26.01 62.8568 26.0098 62.8565 26.0095 62.8564C24.0706 61.4939 22.3225 60.069 20.8131 58.6211C20.8128 58.6207 20.8125 58.6203 20.8122 58.62C19.118 56.9972 17.6167 55.3418 16.3498 53.6998C16.3495 53.6993 16.3491 53.6989 16.3488 53.6984C16.3486 53.6982 16.3486 53.6981 16.3484 53.6979C14.9194 51.8482 13.6845 49.9978 12.6783 48.1975C12.6778 48.1965 12.6772 48.1957 12.6767 48.1948C11.5355 46.1562 10.5866 44.147 9.85657 42.2226C9.85626 42.2218 9.85594 42.2212 9.85563 42.2206V42.2204C9.02188 40.0265 8.37672 37.8912 7.93782 35.8737C7.93782 35.8734 7.93766 35.8732 7.93766 35.8731C7.43376 33.5629 7.11141 31.3384 6.97969 29.2617C6.97969 29.2606 6.97938 29.2597 6.97938 29.2587C6.82626 26.867 6.84532 24.5873 7.0361 22.4831C7.03844 22.4576 7.03844 22.4323 7.03907 22.407C7.29094 19.1531 7.89329 15.8914 8.83235 12.7106C9.0211 12.0711 8.65563 11.3997 8.0161 11.2109C7.37688 11.022 6.70516 11.3873 6.51641 12.0272C5.51938 15.4045 4.88204 18.87 4.62219 22.3273C4.62047 22.3509 4.62094 22.374 4.62047 22.3973C4.42954 24.5882 4.41157 26.9473 4.56954 29.4134C4.56954 29.4139 4.56954 29.4142 4.56954 29.4147C4.70891 31.6107 5.04782 33.9545 5.57704 36.3812C5.57751 36.3831 5.57766 36.3851 5.57797 36.387C6.04219 38.5214 6.72188 40.7728 7.59829 43.0782C7.59844 43.0786 7.59844 43.0789 7.5986 43.0792C8.37094 45.1148 9.37063 47.2331 10.57 49.3751C10.5702 49.3754 10.5703 49.3757 10.5705 49.3761C10.5709 49.3768 10.5713 49.3775 10.5717 49.3781C10.5717 49.3781 10.5717 49.3781 10.5719 49.3782C11.6361 51.2814 12.9366 53.2314 14.4375 55.1742C14.4381 55.175 14.4388 55.1754 14.4392 55.1762C15.7784 56.9117 17.3595 58.6561 19.1388 60.3606C19.1392 60.3611 19.1395 60.3615 19.14 60.362C20.7377 61.895 22.5819 63.3989 24.6216 64.8321C24.6219 64.8323 24.622 64.8325 24.6223 64.8326C26.4611 66.1265 28.5473 67.3515 30.8228 68.4737C30.9947 68.5584 31.1767 68.5986 31.3559 68.5986C31.8011 68.5986 32.2295 68.3512 32.4397 67.925C32.7345 67.3268 32.4888 66.6029 31.8908 66.3079Z" fill="#F7BC14"/>
        <path d="M75.3788 22.3971C75.3783 22.3738 75.3788 22.3509 75.3771 22.3274C75.1172 18.8695 74.4799 15.4038 73.4828 12.0271C73.2941 11.3878 72.6228 11.0231 71.983 11.211C71.3435 11.3998 70.9781 12.0713 71.1669 12.7109C72.1058 15.8909 72.7081 19.1524 72.9602 22.4067C72.961 22.4321 72.961 22.4576 72.9633 22.4832C73.1541 24.5867 73.1731 26.8665 73.02 29.2592C73.02 29.2596 73.02 29.2601 73.02 29.2604C73.02 29.2609 73.0199 29.2612 73.0199 29.2617C72.8881 31.3374 72.5658 33.5618 72.0617 35.8731C72.0617 35.8732 72.0616 35.8735 72.0616 35.8737C71.623 37.8912 70.9777 40.0265 70.1438 42.2202C70.1436 42.2206 70.1436 42.2207 70.1435 42.221C70.1433 42.2217 70.143 42.2221 70.1427 42.2226C69.4128 44.1468 68.4636 46.1567 67.3214 48.1968C67.3213 48.197 67.3211 48.1973 67.321 48.1974C66.3149 49.9973 65.08 51.8477 63.6506 53.6979C63.6503 53.6984 63.65 53.6988 63.6497 53.6993C63.6495 53.6995 63.6496 53.6995 63.6494 53.6996C62.383 55.341 60.8814 56.9963 59.187 58.6198C59.1867 58.6201 59.1864 58.6206 59.1861 58.6209C57.6774 60.0684 55.9289 61.4934 53.9895 62.8562C53.9891 62.8565 53.9886 62.857 53.988 62.8574C53.9878 62.8574 53.9877 62.8576 53.9875 62.8576C52.2502 64.0801 50.2722 65.2409 48.1083 66.3077C47.5102 66.6026 47.2644 67.3265 47.5594 67.9245C47.7695 68.351 48.1978 68.5982 48.6431 68.5982C48.8224 68.5982 49.0044 68.5581 49.1761 68.4734C51.4513 67.3515 53.5372 66.1267 55.376 64.8329C55.3766 64.8324 55.3772 64.8323 55.3778 64.8318C57.4178 63.3981 59.2621 61.8942 60.8592 60.3617C60.8597 60.3612 60.86 60.3607 60.8605 60.3602C62.6405 58.6546 64.222 56.9099 65.561 55.1746C65.5611 55.1746 65.5611 55.1745 65.5613 55.1743C65.5614 55.1742 65.5616 55.174 65.5617 55.1738C67.0635 53.2298 68.3647 51.279 69.4288 49.3757C69.4296 49.3745 69.43 49.3732 69.4306 49.372C70.6297 47.2301 71.6289 45.1128 72.4003 43.079C72.4003 43.0788 72.4005 43.0788 72.4005 43.0785C72.4005 43.0784 72.4006 43.0784 72.4006 43.0781C73.2766 40.7738 73.9558 38.5238 74.42 36.3904C74.4202 36.3899 74.4203 36.3896 74.4205 36.3892C74.9506 33.9584 75.2902 31.6118 75.4296 29.4143C75.4297 29.4126 75.4296 29.411 75.4296 29.4095C75.5875 26.9438 75.5696 24.586 75.3788 22.3971Z" fill="#F7BC14"/>
        <path d="M33.1393 46.2518C29.6587 46.2519 26.2662 45.0187 23.5666 42.7215C20.2363 39.8874 18.3262 35.7546 18.3262 31.3829V27.3004C18.3262 26.8285 18.5102 26.3847 18.8443 26.0515C19.1773 25.7194 19.6195 25.5366 20.0895 25.5366C20.091 25.5366 20.0926 25.5366 20.0941 25.5366L30.7829 25.5601C31.4496 25.5615 31.989 26.1032 31.9876 26.7701C31.986 27.4358 31.4457 27.9747 30.7804 27.9747C30.7794 27.9747 30.7785 27.9747 30.7776 27.9747L20.7409 27.9527L20.7407 31.3827C20.7407 35.0452 22.341 38.5077 25.1313 40.8822C27.9002 43.2385 31.5404 44.2577 35.1165 43.6776C35.2405 43.6574 35.3654 43.6363 35.4915 43.6143C36.149 43.5004 36.774 43.9385 36.889 44.5952C37.004 45.2521 36.5648 45.8777 35.908 45.9927C35.7719 46.0165 35.6368 46.0394 35.5029 46.0612C34.7155 46.189 33.9249 46.2518 33.1393 46.2518Z" fill="#FFB125"/>
        <path d="M46.8609 46.2516C46.075 46.2516 45.285 46.1888 44.4972 46.0611C44.3633 46.0394 44.2281 46.0165 44.092 45.9927C43.4351 45.8777 42.9961 45.2519 43.1111 44.5952C43.2261 43.9383 43.8525 43.5001 44.5086 43.6143C44.6345 43.6365 44.7595 43.6576 44.8836 43.6776C48.4604 44.2572 52.0998 43.2385 54.8687 40.8822C57.659 38.5079 59.2594 35.0454 59.2594 31.3827V27.9527L49.2226 27.9747C49.2217 27.9747 49.2208 27.9747 49.2198 27.9747C48.5544 27.9747 48.014 27.436 48.0126 26.7701C48.0111 26.1032 48.5504 25.5615 49.2173 25.5601L59.9065 25.5366C59.9081 25.5366 59.9097 25.5366 59.9112 25.5366C60.3809 25.5366 60.8229 25.7193 61.1561 26.0515C61.4901 26.3849 61.6742 26.8283 61.6742 27.3004V31.3829C61.6742 35.7546 59.7642 39.8874 56.4337 42.7215C53.7342 45.0183 50.3414 46.2516 46.8609 46.2516Z" fill="#FFB125"/>
        <path d="M32.0615 63.7489H47.9379C41.3615 55.4092 42.0478 43.3901 42.0478 43.3901H39.9998H37.9518C37.9518 43.3903 38.6381 55.4094 32.0615 63.7489Z" fill="#FED130"/>
        <path d="M42.0481 43.3901H40.0001H37.9521C37.9521 43.3901 38.0584 45.2562 37.7851 48.0278C37.2642 53.3108 38.5746 58.6401 41.6665 62.9553C41.8584 63.2231 42.0571 63.4878 42.2629 63.7487H47.9384C41.3618 55.4092 42.0481 43.3901 42.0481 43.3901Z" fill="#F7BC14"/>
        <path d="M28.0234 22.0771V32.6101C28.0234 38.8417 30.9852 44.7023 36.0022 48.3986C38.3794 50.1498 41.6197 50.1498 43.9969 48.3986C49.0139 44.7025 51.9756 38.8417 51.9756 32.6101V22.0771H28.0234Z" fill="#FED130"/>
        <path d="M46.2734 22.0771V32.6101C46.2734 38.8417 43.3117 44.7023 38.2947 48.3985C37.9308 48.6667 37.5466 48.8932 37.1484 49.0792C39.3513 50.1084 41.9836 49.8818 43.9969 48.3985C49.0139 44.7024 51.9756 38.8417 51.9756 32.6101V22.0771H46.2734Z" fill="#F7BC14"/>
        <path d="M52.8344 23.7222H27.1663C26.7794 23.7222 26.4658 23.4086 26.4658 23.0217V20.1189C26.4658 19.732 26.7794 19.4185 27.1663 19.4185H52.8344C53.2213 19.4185 53.5349 19.732 53.5349 20.1189V23.0217C53.5347 23.4086 53.2211 23.7222 52.8344 23.7222Z" fill="#FFB125"/>
        <path d="M52.8339 19.4189H47.832V23.7225H52.8339C53.2208 23.7225 53.5342 23.4089 53.5342 23.0221V20.1193C53.5342 19.7325 53.2206 19.4189 52.8339 19.4189Z" fill="#FF901D"/>
        <path d="M53.6196 68.8389H26.4883C26.0951 68.8389 25.8221 68.4472 25.9583 68.0783L27.9732 62.6189C28.0551 62.3969 28.2666 62.2495 28.5032 62.2495H51.6047C51.8413 62.2495 52.0529 62.3969 52.1348 62.6189L54.1496 68.0783C54.2858 68.4472 54.0129 68.8389 53.6196 68.8389Z" fill="#FFB125"/>
        <path d="M54.1501 68.0783L52.1352 62.6189C52.0532 62.3969 51.8418 62.2495 51.605 62.2495H46.0947L48.5266 68.8389H53.6199C54.0132 68.8389 54.2861 68.4472 54.1501 68.0783Z" fill="#FF901D"/>
    </g>
    <defs>
        <clipPath id="clip0">
            <rect width="80" height="80" fill="white"/>
        </clipPath>
    </defs>
</svg>
