<?xml version="1.0" standalone="no"?>
<!DOCTYPE svg PUBLIC "-//W3C//DTD SVG 1.1//EN"
        "http://www.w3.org/Graphics/SVG/1.1/DTD/svg11.dtd">

<svg width="500" height="500" viewBox="0 0 500 500" fill="none" xmlns="http://www.w3.org/2000/svg">
    <path d="M401.061 500H98.9392C44.2964 500 0 455.704 0 401.061V98.9392C0 44.2964 44.2964 0 98.9392 0H401.055C455.704 0 500 44.2964 500 98.9392V401.055C500 455.704 455.704 500 401.061 500Z" fill="url(#paint0_linear)"/>
    <path d="M341.039 302.116L287.473 356.722C286.21 358.012 284.478 358.737 282.671 358.737H216.983C215.176 358.737 213.449 358.012 212.18 356.722L159.568 303.092C153.833 297.244 144.606 304.787 149.195 311.572L244.749 452.825C247.42 456.775 253.246 456.764 255.906 452.804L351.418 310.581C355.981 303.79 346.764 296.279 341.039 302.116Z" fill="white"/>
    <path d="M238.763 244.275L213.859 219.371C207.74 213.252 207.74 203.326 213.859 197.207L238.763 172.303C244.883 166.183 254.808 166.183 260.928 172.303L285.832 197.207C291.951 203.326 291.951 213.252 285.832 219.371L260.928 244.275C254.808 250.395 244.883 250.395 238.763 244.275Z" fill="white"/>
    <path d="M388.881 193.028V224.643C388.881 234.68 384.888 244.318 377.788 251.418L291.898 337.308C284.797 344.408 275.16 348.401 265.123 348.401H233.507C223.459 348.401 213.822 344.408 206.722 337.308L119.808 250.384C112.708 243.284 108.715 233.646 108.715 223.609V194.062C108.715 184.014 112.708 174.376 119.808 167.287L207.756 79.3284C214.856 72.2228 224.494 68.2303 234.542 68.2303H264.088C274.126 68.2303 283.763 72.2228 290.863 79.323L377.788 166.247C384.893 173.342 388.881 182.98 388.881 193.028ZM337.655 220.762V196.343C337.655 191.391 335.693 186.658 332.185 183.15L274.056 125.021C270.56 121.525 265.816 119.563 260.874 119.563H237.756C232.814 119.563 228.07 121.525 224.574 125.021L165.778 183.817C162.276 187.313 160.309 192.058 160.309 196.999V220.117C160.309 225.059 162.271 229.803 165.778 233.3L223.913 291.445C227.409 294.941 232.154 296.903 237.106 296.903H261.524C266.466 296.903 271.21 294.941 274.707 291.445L332.185 233.955C335.693 230.453 337.655 225.709 337.655 220.762Z" fill="white"/>
    <defs>
        <linearGradient id="paint0_linear" x1="28.9793" y1="471.021" x2="471.021" y2="28.9793" gradientUnits="userSpaceOnUse">
            <stop stop-color="#8FDD3D"/>
            <stop offset="1" stop-color="#5CC04A"/>
        </linearGradient>
    </defs>
</svg>