<?xml version="1.0" standalone="no"?>
<!DOCTYPE svg PUBLIC "-//W3C//DTD SVG 1.1//EN"
        "http://www.w3.org/Graphics/SVG/1.1/DTD/svg11.dtd">

<svg width="310" height="24" viewBox="0 0 310 24" fill="none" xmlns="http://www.w3.org/2000/svg">
    <line x1="0.5" y1="11.5" x2="309.5" y2="11.5" stroke="#C7C7CC" stroke-linecap="round"/>
    <rect x="136" width="38" height="24" rx="12" fill="white"/>
    <path d="M147.091 19.12C145.705 19.12 144.445 18.8133 143.311 18.2C142.191 17.5733 141.311 16.72 140.671 15.64C140.045 14.56 139.731 13.3467 139.731 12C139.731 10.6533 140.045 9.44 140.671 8.36C141.311 7.28 142.191 6.43333 143.311 5.82C144.445 5.19333 145.705 4.88 147.091 4.88C148.478 4.88 149.725 5.18667 150.831 5.8C151.951 6.41333 152.831 7.26667 153.471 8.36C154.111 9.44 154.431 10.6533 154.431 12C154.431 13.3467 154.111 14.5667 153.471 15.66C152.831 16.74 151.951 17.5867 150.831 18.2C149.725 18.8133 148.478 19.12 147.091 19.12ZM147.091 17.8C148.198 17.8 149.198 17.5533 150.091 17.06C150.985 16.5533 151.685 15.86 152.191 14.98C152.698 14.0867 152.951 13.0933 152.951 12C152.951 10.9067 152.698 9.92 152.191 9.04C151.685 8.14667 150.985 7.45333 150.091 6.96C149.198 6.45333 148.198 6.2 147.091 6.2C145.985 6.2 144.978 6.45333 144.071 6.96C143.178 7.45333 142.471 8.14667 141.951 9.04C141.445 9.92 141.191 10.9067 141.191 12C141.191 13.0933 141.445 14.0867 141.951 14.98C142.471 15.86 143.178 16.5533 144.071 17.06C144.978 17.5533 145.985 17.8 147.091 17.8ZM163.389 19.12C161.575 19.12 160.162 18.6 159.149 17.56C158.135 16.52 157.629 15.0067 157.629 13.02V5H159.109V12.96C159.109 14.5867 159.475 15.8 160.209 16.6C160.942 17.4 162.002 17.8 163.389 17.8C164.789 17.8 165.855 17.4 166.589 16.6C167.322 15.8 167.689 14.5867 167.689 12.96V5H169.129V13.02C169.129 15.0067 168.622 16.52 167.609 17.56C166.609 18.6 165.202 19.12 163.389 19.12Z" fill="#CBCBCB"/>
</svg>