<?xml version="1.0" standalone="no"?>
<!DOCTYPE svg PUBLIC "-//W3C//DTD SVG 1.1//EN"
        "http://www.w3.org/Graphics/SVG/1.1/DTD/svg11.dtd">

<svg width="300" height="60" viewBox="0 0 300 60" fill="none" xmlns="http://www.w3.org/2000/svg">
    <path d="M16.2612 7.21802H3.31861C1.49338 7.21802 0 5.72465 0 3.89941C0 2.07417 1.49338 0.663757 3.31861 0.663757H36.2559C38.0811 0.663757 39.4915 2.07417 39.4915 3.89941C39.4915 5.72465 38.0811 7.21802 36.2559 7.21802H23.3133V55.8357C23.3133 57.7439 21.7369 59.4032 19.7458 59.4032C17.8376 59.4032 16.2612 57.7439 16.2612 55.8357V7.21802Z" fill="white"/>
    <path d="M34.6794 37.5833C34.6794 25.3044 44.1375 15.5975 56.5823 15.5975C62.6388 15.5975 67.6997 17.9205 70.9353 20.9073C71.682 21.571 72.1798 22.4836 72.1798 23.4792C72.1798 24.3088 71.9309 25.0555 71.1012 25.9681L56.3334 43.6398C55.6697 44.3864 54.923 44.7183 54.0104 44.7183C52.1851 44.7183 50.8577 43.4738 50.8577 41.7316C50.8577 40.9849 51.0236 40.2382 51.6044 39.6574L64.547 24.3918C62.3899 22.5666 59.3202 21.7369 56.5823 21.7369C48.1198 21.7369 41.3996 28.706 41.3996 37.5833C41.3996 46.3776 48.0369 53.4297 56.5823 53.4297C61.3113 53.4297 65.0448 51.3555 67.6167 48.4517C68.5293 47.6221 69.276 46.9584 70.4375 46.9584C72.3457 46.9584 73.7561 48.2858 73.7561 50.1111C73.7561 50.7748 73.3413 51.6874 72.7605 52.3511C69.276 56.4994 63.5514 59.5691 56.5823 59.5691C44.2205 59.5691 34.6794 49.8622 34.6794 37.5833Z" fill="white"/>
    <path d="M82.8823 33.518C82.8823 22.8155 89.6855 15.5975 99.9731 15.5975C101.632 15.5975 103.043 16.9249 103.043 18.6672C103.043 20.3265 101.632 21.7369 99.9731 21.7369C93.8337 21.7369 89.5195 25.8022 89.5195 33.518V56.0016C89.5195 57.9098 88.0262 59.4032 86.2009 59.4032C84.2927 59.4032 82.8823 57.9098 82.8823 56.0016V33.518Z" fill="white"/>
    <path d="M108.768 33.518C108.768 22.8155 115.571 15.5975 125.858 15.5975C127.518 15.5975 128.928 16.9249 128.928 18.6672C128.928 20.3265 127.518 21.7369 125.858 21.7369C119.719 21.7369 115.405 25.8022 115.405 33.518V56.0016C115.405 57.9098 113.911 59.4032 112.086 59.4032C110.178 59.4032 108.768 57.9098 108.768 56.0016V33.518Z" fill="white"/>
    <path d="M169.495 52.9319C165.596 57.0801 160.203 59.5691 153.981 59.5691C141.785 59.5691 132.493 49.8622 132.493 37.5833C132.493 25.3044 141.785 15.5975 153.981 15.5975C160.203 15.5975 165.596 18.1694 169.495 22.2347V19.082C169.495 17.2568 170.989 15.7634 172.814 15.7634C174.722 15.7634 176.133 17.2568 176.133 19.082V56.0016C176.133 57.9098 174.722 59.4032 172.814 59.4032C170.989 59.4032 169.495 57.9098 169.495 56.0016V52.9319ZM169.495 38.247V36.9196C169.164 28.2912 162.609 21.7369 154.396 21.7369C145.933 21.7369 139.213 28.623 139.213 37.5833C139.213 46.5436 145.933 53.4297 154.396 53.4297C162.609 53.4297 169.164 46.8754 169.495 38.247Z" fill="white"/>
    <path d="M222.51 52.9319C218.611 57.0802 213.218 59.5691 206.996 59.5691C194.8 59.5691 185.508 49.8622 185.508 37.5833C185.508 25.3044 194.8 15.5975 206.996 15.5975C213.218 15.5975 218.611 18.1694 222.51 22.2347V3.31861C222.51 1.49338 224.004 0 225.829 0C227.737 0 229.147 1.49338 229.147 3.31861V56.0016C229.147 57.9098 227.737 59.4032 225.829 59.4032C224.004 59.4032 222.51 57.9098 222.51 56.0016V52.9319ZM222.51 38.247V36.9196C222.178 28.2912 215.624 21.7369 207.41 21.7369C198.948 21.7369 192.228 28.623 192.228 37.5833C192.228 46.5436 198.948 53.4297 207.41 53.4297C215.624 53.4297 222.178 46.8754 222.51 38.247Z" fill="white"/>
    <path d="M239.601 6.13948C239.601 3.81645 241.426 1.99121 243.749 1.99121C245.989 1.99121 247.898 3.81645 247.898 6.13948C247.898 8.37954 245.989 10.2877 243.749 10.2877C241.426 10.2877 239.601 8.37954 239.601 6.13948ZM240.431 19.0821C240.431 17.2568 241.841 15.7635 243.749 15.7635C245.575 15.7635 247.068 17.2568 247.068 19.0821V56.0016C247.068 57.9098 245.575 59.4032 243.749 59.4032C241.841 59.4032 240.431 57.9098 240.431 56.0016V19.0821Z" fill="white"/>
    <path d="M293.363 52.9319C289.464 57.0801 284.071 59.5691 277.848 59.5691C265.652 59.5691 256.36 49.8622 256.36 37.5833C256.36 25.3044 265.652 15.5975 277.848 15.5975C284.071 15.5975 289.464 18.1694 293.363 22.2347V19.082C293.363 17.2568 294.856 15.7634 296.681 15.7634C298.59 15.7634 300 17.2568 300 19.082V56.0016C300 57.9098 298.59 59.4032 296.681 59.4032C294.856 59.4032 293.363 57.9098 293.363 56.0016V52.9319ZM293.363 38.247V36.9196C293.031 28.2912 286.477 21.7369 278.263 21.7369C269.801 21.7369 263.081 28.623 263.081 37.5833C263.081 46.5436 269.801 53.4297 278.263 53.4297C286.477 53.4297 293.031 46.8754 293.363 38.247Z" fill="white"/>
</svg>
